HIERARCHY
ROOT hip
{
	OFFSET 0.000000 0.000000 0.000000 
	CHANNELS 6 Xposition Yposition Zposition Xrotation Zrotation Yrotation
	JOINT abdomen
	{
		OFFSET 0.000000 3.402643 0.000000 
		CHANNELS 3 Xrotation Zrotation Yrotation
		JOINT chest
		{
			OFFSET 0.000000 8.438565 -0.680529 
			CHANNELS 3 Xrotation Zrotation Yrotation
			JOINT neck
			{
				OFFSET 0.000000 10.207942 -0.272212 
				CHANNELS 3 Xrotation Zrotation Yrotation
				JOINT head
				{
					OFFSET 0.000000 3.130431 0.000000 
					CHANNELS 3 Xrotation Zrotation Yrotation
					End Site
					{
						OFFSET 0.000000 3.130435 0.000000 
					}
				}
			}
			JOINT lCollar
			{
				OFFSET 3.470700 6.669187 -0.816635 
				CHANNELS 3 Zrotation Yrotation Xrotation
				JOINT lShldr
				{
					OFFSET 3.198488 0.000000 0.000000 
					CHANNELS 3 Zrotation Yrotation Xrotation
					JOINT lForeArm
					{
						OFFSET 10.139888 0.000000 0.000000 
						CHANNELS 3 Yrotation Zrotation Xrotation
						JOINT lHand
						{
							OFFSET 8.370511 0.000000 0.000000 
							CHANNELS 3 Zrotation Yrotation Xrotation
							End Site
							{
								OFFSET 4.083176 0.000000 0.000000 
							}
						}
					}
				}
			}
			JOINT rCollar
			{
				OFFSET -3.470700 6.669187 -0.816635 
				CHANNELS 3 Zrotation Yrotation Xrotation
				JOINT rShldr
				{
					OFFSET -3.198488 0.000000 0.000000 
					CHANNELS 3 Zrotation Yrotation Xrotation
					JOINT rForeArm
					{
						OFFSET -10.139888 0.000000 0.000000 
						CHANNELS 3 Yrotation Zrotation Xrotation
						JOINT rHand
						{
							OFFSET -8.370511 0.000000 0.000000 
							CHANNELS 3 Zrotation Yrotation Xrotation
							End Site
							{
								OFFSET -4.083176 0.000000 0.000000 
							}
						}
					}
				}
			}
		}
	}
	JOINT lThigh
	{
		OFFSET 5.308129 -1.633274 1.361059 
		CHANNELS 3 Xrotation Zrotation Yrotation
		JOINT lShin
		{
			OFFSET -2.041588 -20.007561 0.000000 
			CHANNELS 3 Xrotation Zrotation Yrotation
			JOINT lFoot
			{
				OFFSET 0.000000 -19.190928 -1.224953 
				CHANNELS 3 Xrotation Yrotation Zrotation
				End Site
				{
					OFFSET 0.000000 -2.449906 4.627600 
				}
			}
		}
	}
	JOINT rThigh
	{
		OFFSET -5.308129 -1.633274 1.361059 
		CHANNELS 3 Xrotation Zrotation Yrotation
		JOINT rShin
		{
			OFFSET 2.041588 -20.007561 0.000000 
			CHANNELS 3 Xrotation Zrotation Yrotation
			JOINT rFoot
			{
				OFFSET 0.000000 -19.190928 -1.224953 
				CHANNELS 3 Xrotation Yrotation Zrotation
				End Site
				{
					OFFSET 0.000000 -2.449906 4.627600 
				}
			}
		}
	}
}
MOTION
Frames: 8
Frame Time: 0.016667
0.160136 53.045765 1.177061 -8.785450 1.289048 -0.273368 29.230734 -2.691792 -0.555312 -0.295848 1.835458 -1.963470 -6.848075 6.370278 -0.589906 12.186226 -1.872338 6.585522 -10.644360 -9.197519 1.172538 -61.916054 15.810818 -22.432240 -27.129549 -5.000000 33.656002 -26.219381 2.505263 13.329877 15.013277 11.169237 2.181978 59.443615 -8.731334 -15.201612 24.189394 5.000000 31.774157 20.787594 -8.656039 -6.593977 18.394938 12.000284 2.222558 -0.957325 -5.648006 -0.116832 -6.691609 12.282109 -6.372316 18.952791 -9.353739 -0.758611 0.048616 0.886601 -0.052898 -6.333014 -17.400297 9.122746 
0.158671 53.045765 1.169742 -8.755016 1.279287 -0.224553 29.222408 -2.690974 -0.575388 -0.305837 1.845222 -1.963470 -6.818878 6.379934 -0.591367 12.175659 -1.882076 6.575761 -10.644944 -9.216715 1.177659 -61.916553 15.837545 -22.474251 -27.152346 -5.000000 33.657627 -26.235966 2.432679 13.354638 14.954953 11.158721 2.175033 59.462780 -8.731771 -15.180424 24.145735 5.000000 31.784849 20.849344 -8.689231 -6.607169 18.321388 12.017726 2.105178 -0.958111 -5.646916 -0.077840 -6.617737 12.246618 -6.374393 18.930052 -9.313056 -0.789213 0.038900 0.867833 -0.033469 -6.354494 -17.440344 9.167026 
0.155448 53.044884 1.165058 -8.734425 1.289056 -0.175737 29.212515 -2.712373 -0.573855 -0.294563 1.806183 -1.924419 -6.828161 6.439328 -0.590535 12.171312 -1.843379 6.546165 -10.595449 -9.267504 1.170174 -61.936497 15.843287 -22.483446 -27.201368 -5.000000 33.608299 -26.274914 2.446141 13.383525 14.963715 11.110131 2.145093 59.453381 -8.741179 -15.211355 24.131174 5.000000 31.778835 20.816442 -8.724712 -6.573342 18.309797 12.051356 2.050987 -0.975821 -5.673865 -0.086119 -6.606892 12.277486 -6.361192 18.919321 -9.313513 -0.799337 0.029026 0.877642 -0.053635 -6.338809 -17.455050 9.149995 
0.151054 53.043427 1.162133 -8.713838 1.308591 -0.126920 29.211847 -2.735256 -0.572967 -0.272094 1.728104 -1.855784 -6.887769 6.535880 -0.605139 12.180925 -1.775673 6.487300 -10.509146 -9.355704 1.177944 -61.958702 15.818303 -22.463558 -27.264368 -5.000000 33.523117 -26.310013 2.526044 13.412791 15.032208 11.042696 2.141477 59.424709 -8.769609 -15.270425 24.145699 5.000000 31.759148 20.731953 -8.760055 -6.518199 18.274984 12.048203 2.000196 -0.988300 -5.731405 -0.092551 -6.606176 12.355824 -6.315072 18.925217 -9.325813 -0.821278 0.019438 0.868289 -0.044138 -6.300629 -17.464779 9.086099 
0.146953 53.042835 1.159794 -8.702996 1.337889 -0.078104 29.220884 -2.770846 -0.566721 -0.250714 1.669537 -1.816737 -6.948100 6.592348 -0.623493 12.189527 -1.707850 6.457729 -10.441717 -9.414725 1.180834 -61.973522 15.801658 -22.452070 -27.313425 -5.000000 33.473824 -26.296629 2.590173 13.414055 15.100838 11.004525 2.147739 59.386086 -8.788263 -15.309981 24.148594 5.000000 31.750671 20.669502 -8.798738 -6.479800 18.232965 12.056157 1.951187 -0.977305 -5.723851 -0.113110 -6.603636 12.398557 -6.316952 18.909628 -9.313498 -0.829135 0.019284 0.858355 -0.053736 -6.244626 -17.489023 9.039906 
0.144025 53.045769 1.159795 -8.721388 1.337891 -0.029289 29.259960 -2.777709 -0.580681 -0.261475 1.689051 -1.875320 -7.026700 6.532953 -0.624325 12.249954 -1.668744 6.545586 -10.490258 -9.384912 1.181039 -61.916847 15.802206 -22.436781 -27.325945 -5.000000 33.581177 -26.068853 2.554966 13.328344 15.130446 11.034148 2.165944 59.307995 -8.816220 -15.330439 24.119505 5.000000 31.767357 20.734724 -8.846846 -6.510254 18.240383 12.079857 1.925430 -0.976385 -5.714586 -0.133833 -6.637433 12.328742 -6.346416 18.953150 -9.315533 -0.849297 0.009560 0.878026 -0.054534 -6.223650 -17.511309 9.075357 
0.141099 53.048702 1.159796 -8.739775 1.347656 0.019756 29.288603 -2.801014 -0.580880 -0.271959 1.708571 -1.914376 -7.116043 6.462440 -0.633292 12.311356 -1.619915 6.643205 -10.538501 -9.345503 1.179433 -61.862144 15.807347 -22.429913 -27.338190 -5.000000 33.692062 -25.839394 2.524787 13.229979 15.159675 11.054042 2.174355 59.239960 -8.834494 -15.360499 24.099152 5.000000 31.781307 20.801405 -8.891430 -6.549844 18.228271 12.078543 1.885224 -0.966917 -5.686718 -0.144221 -6.652278 12.318335 -6.348760 18.969677 -9.304534 -0.857339 0.019296 0.877719 -0.063854 -6.209763 -17.568068 9.117607 
0.139343 53.050457 1.159796 -8.739316 1.347656 0.039281 29.307713 -2.805335 -0.572425 -0.272833 1.708552 -1.943660 -7.094891 6.415628 -0.616398 12.292653 -1.620011 6.613919 -10.576857 -9.306301 1.176684 -61.820274 15.791203 -22.403198 -27.359177 -5.000000 33.717987 -25.775848 2.475171 13.162261 15.061819 11.033290 2.149763 59.356857 -8.797509 -15.320084 23.982594 5.000000 31.745008 20.789606 -8.837481 -6.383770 18.231871 12.090336 1.867356 -0.976069 -5.704738 -0.134091 -6.665069 12.283940 -6.395963 18.989880 -9.285719 -0.862982 -0.000179 0.878052 -0.054980 -6.229070 -17.638901 9.072537 
